# xmcd CD database file
#
# Track frame offsets:
#	150
#	12918
#	23878
#	35931
#	44368
#	58178
#	70516
#	83103
#	95765
#	108341
#	118629
#	132941
#	145404
#	160612
#	164780
#	177325
#
# Disc length: 2583 seconds
#
# Revision: 0
# Processed by: cddbd v1.5.2PL0 Copyright (c) Steve Scherf et al.
# Submitted via: CDex 1.92
#
DISCID=e10a1510
DTITLE=Elmore James - Big Box
DYEAR=2012
DGENRE=Blues
TTITLE0=The Sky Is Crying
TTITLE1=Done Somebody Wrong
TTITLE2=Sax-Ony Boogie
TTITLE3=She Done Moved
TTITLE4=Standing At The Crossroads
TTITLE5=Make My Dreams Come True
TTITLE6=Woke Up Screamin' and Cryin'
TTITLE7=Mean Mistreatin' Mama (Take 2 - Alternate)
TTITLE8=Happy Home
TTITLE9=Going Back Home Again
TTITLE10=Hand In Hand
TTITLE11=Blues Before Sunrise
TTITLE12=It Hurts Me Too
TTITLE13=Up Jumped Elmore (False Start)
TTITLE14=Cry For Me Baby
TTITLE15=Back in Mississippi (Studio Conversation)
EXTD=YEAR: 2012
EXTT0=
EXTT1=
EXTT2=
EXTT3=
EXTT4=
EXTT5=
EXTT6=
EXTT7=
EXTT8=
EXTT9=
EXTT10=
EXTT11=
EXTT12=
EXTT13=
EXTT14=
EXTT15=
PLAYORDER=
